<?xml version="1.0" encoding="us-ascii" standalone="no"?><svg xmlns="http://www.w3.org/2000/svg" xmlns:xlink="http://www.w3.org/1999/xlink" contentStyleType="text/css" height="642px" preserveAspectRatio="none" style="width:432px;height:642px;background:#FFFFFF;" version="1.1" viewBox="0 0 432 642" width="432px" zoomAndPan="magnify"><defs/><g><text fill="#000000" font-family="sans-serif" font-size="14" font-weight="bold" lengthAdjust="spacing" textLength="196" x="116.5" y="34.0752">B&#250;squeda y Contrataci&#243;n</text><rect fill="none" height="21.876" style="stroke:none;stroke-width:1.0;" width="399" x="15" y="50.2939"/><ellipse cx="123" cy="87.1699" fill="#222222" rx="10" ry="10" style="stroke:#222222;stroke-width:1.0;"/><rect fill="#F1F1F1" height="34.584" rx="12.5" ry="12.5" style="stroke:#181818;stroke-width:0.5;" width="204" x="21" y="117.1699"/><text fill="#000000" font-family="sans-serif" font-size="12" lengthAdjust="spacing" textLength="184" x="31" y="139.2344">Buscar servicios de jardiner&#237;a</text><rect fill="#F1F1F1" height="34.584" rx="12.5" ry="12.5" style="stroke:#181818;stroke-width:0.5;" width="121" x="62.5" y="171.7539"/><text fill="#000000" font-family="sans-serif" font-size="12" lengthAdjust="spacing" textLength="101" x="72.5" y="193.8184">Revisar rese&#241;as</text><rect fill="#F1F1F1" height="34.584" rx="12.5" ry="12.5" style="stroke:#181818;stroke-width:0.5;" width="131" x="57.5" y="226.3379"/><text fill="#000000" font-family="sans-serif" font-size="12" lengthAdjust="spacing" textLength="111" x="67.5" y="248.4023">Comparar precios</text><rect fill="#F1F1F1" height="34.584" rx="12.5" ry="12.5" style="stroke:#181818;stroke-width:0.5;" width="160" x="43" y="280.9219"/><text fill="#000000" font-family="sans-serif" font-size="12" lengthAdjust="spacing" textLength="140" x="53" y="302.9863">Seleccionar Proveedor</text><rect fill="#F1F1F1" height="34.584" rx="12.5" ry="12.5" style="stroke:#181818;stroke-width:0.5;" width="102" x="72" y="335.5059"/><text fill="#000000" font-family="sans-serif" font-size="12" lengthAdjust="spacing" textLength="82" x="82" y="357.5703">Agendar Cita</text><rect fill="#F1F1F1" height="34.584" rx="12.5" ry="12.5" style="stroke:#181818;stroke-width:0.5;" width="143" x="51.5" y="553.8418"/><text fill="#000000" font-family="sans-serif" font-size="12" lengthAdjust="spacing" textLength="123" x="61.5" y="575.9063">Recibir confirmaci&#243;n</text><ellipse cx="123" cy="619.4258" fill="none" rx="11" ry="11" style="stroke:#222222;stroke-width:1.0;"/><ellipse cx="123" cy="619.4258" fill="#222222" rx="6" ry="6" style="stroke:#222222;stroke-width:1.0;"/><line style="stroke:#000000;stroke-width:1.5;" x1="15" x2="15" y1="50.2939" y2="630.4258"/><rect fill="#F1F1F1" height="34.584" rx="12.5" ry="12.5" style="stroke:#181818;stroke-width:0.5;" width="111" x="266" y="390.0898"/><text fill="#000000" font-family="sans-serif" font-size="12" lengthAdjust="spacing" textLength="91" x="276" y="412.1543">Procesar pago</text><rect fill="#F1F1F1" height="34.584" rx="12.5" ry="12.5" style="stroke:#181818;stroke-width:0.5;" width="155" x="244" y="444.6738"/><text fill="#000000" font-family="sans-serif" font-size="12" lengthAdjust="spacing" textLength="135" x="254" y="466.7383">Notificar al proveedor</text><rect fill="#F1F1F1" height="34.584" rx="12.5" ry="12.5" style="stroke:#181818;stroke-width:0.5;" width="173" x="235" y="499.2578"/><text fill="#000000" font-family="sans-serif" font-size="12" lengthAdjust="spacing" textLength="153" x="245" y="521.3223">Confirmar cita al usuario</text><line style="stroke:#000000;stroke-width:1.5;" x1="229" x2="229" y1="50.2939" y2="630.4258"/><line style="stroke:#000000;stroke-width:1.5;" x1="412" x2="412" y1="50.2939" y2="630.4258"/><line style="stroke:#181818;stroke-width:1.0;" x1="123" x2="123" y1="97.1699" y2="117.1699"/><polygon fill="#181818" points="119,107.1699,123,117.1699,127,107.1699,123,111.1699" style="stroke:#181818;stroke-width:1.0;"/><line style="stroke:#181818;stroke-width:1.0;" x1="123" x2="123" y1="151.7539" y2="171.7539"/><polygon fill="#181818" points="119,161.7539,123,171.7539,127,161.7539,123,165.7539" style="stroke:#181818;stroke-width:1.0;"/><line style="stroke:#181818;stroke-width:1.0;" x1="123" x2="123" y1="206.3379" y2="226.3379"/><polygon fill="#181818" points="119,216.3379,123,226.3379,127,216.3379,123,220.3379" style="stroke:#181818;stroke-width:1.0;"/><line style="stroke:#181818;stroke-width:1.0;" x1="123" x2="123" y1="260.9219" y2="280.9219"/><polygon fill="#181818" points="119,270.9219,123,280.9219,127,270.9219,123,274.9219" style="stroke:#181818;stroke-width:1.0;"/><line style="stroke:#181818;stroke-width:1.0;" x1="123" x2="123" y1="315.5059" y2="335.5059"/><polygon fill="#181818" points="119,325.5059,123,335.5059,127,325.5059,123,329.5059" style="stroke:#181818;stroke-width:1.0;"/><line style="stroke:#181818;stroke-width:1.0;" x1="123" x2="123" y1="588.4258" y2="608.4258"/><polygon fill="#181818" points="119,598.4258,123,608.4258,127,598.4258,123,602.4258" style="stroke:#181818;stroke-width:1.0;"/><line style="stroke:#181818;stroke-width:1.0;" x1="321.5" x2="321.5" y1="424.6738" y2="444.6738"/><polygon fill="#181818" points="317.5,434.6738,321.5,444.6738,325.5,434.6738,321.5,438.6738" style="stroke:#181818;stroke-width:1.0;"/><line style="stroke:#181818;stroke-width:1.0;" x1="321.5" x2="321.5" y1="479.2578" y2="499.2578"/><polygon fill="#181818" points="317.5,489.2578,321.5,499.2578,325.5,489.2578,321.5,493.2578" style="stroke:#181818;stroke-width:1.0;"/><line style="stroke:#181818;stroke-width:1.0;" x1="123" x2="123" y1="370.0898" y2="375.0898"/><line style="stroke:#181818;stroke-width:1.0;" x1="123" x2="321.5" y1="375.0898" y2="375.0898"/><line style="stroke:#181818;stroke-width:1.0;" x1="321.5" x2="321.5" y1="375.0898" y2="390.0898"/><polygon fill="#181818" points="317.5,380.0898,321.5,390.0898,325.5,380.0898,321.5,384.0898" style="stroke:#181818;stroke-width:1.0;"/><line style="stroke:#181818;stroke-width:1.0;" x1="321.5" x2="321.5" y1="533.8418" y2="538.8418"/><line style="stroke:#181818;stroke-width:1.0;" x1="321.5" x2="123" y1="538.8418" y2="538.8418"/><line style="stroke:#181818;stroke-width:1.0;" x1="123" x2="123" y1="538.8418" y2="553.8418"/><polygon fill="#181818" points="119,543.8418,123,553.8418,127,543.8418,123,547.8418" style="stroke:#181818;stroke-width:1.0;"/><text fill="#000000" font-family="sans-serif" font-size="18" lengthAdjust="spacing" textLength="68" x="88" y="68.3906">Usuario</text><text fill="#000000" font-family="sans-serif" font-size="18" lengthAdjust="spacing" textLength="77" x="282" y="68.3906">Servidor</text><!--SRC=[JOynRiCm34LtdKB8CUofyLuK2Ne0Lc825exeahA10BvIXw9RLr-iNss0P2FU__pahr97ZhlzzkCVCsUArpXegKQLacpVPHV2-kepcUWQl9BLqErdJsJHsHP9eXupntUoB8Lj-wG-T0TUn64nTjw-o846lKnaO9DnMm8wyiW9Sm5zCLsOinhuqvbB1Xka8cmzjZjGrj31bRW5JtHME9-roadQCpGY-1w13YUn2uI4aARE_oNwXpfuCycRm7Dp_pNkKLEd47u1]--></g></svg>