<?xml version="1.0" encoding="us-ascii" standalone="no"?><svg xmlns="http://www.w3.org/2000/svg" xmlns:xlink="http://www.w3.org/1999/xlink" contentStyleType="text/css" height="604px" preserveAspectRatio="none" style="width:432px;height:604px;background:#FFFFFF;" version="1.1" viewBox="0 0 432 604" width="432px" zoomAndPan="magnify"><defs/><g><rect fill="none" height="21.876" style="stroke:none;stroke-width:1.0;" width="399" x="15" y="12.2793"/><ellipse cx="123" cy="49.1553" fill="#222222" rx="10" ry="10" style="stroke:#222222;stroke-width:1.0;"/><rect fill="#F1F1F1" height="34.584" rx="12.5" ry="12.5" style="stroke:#181818;stroke-width:0.5;" width="204" x="21" y="79.1553"/><text fill="#000000" font-family="sans-serif" font-size="12" lengthAdjust="spacing" textLength="184" x="31" y="101.2197">Buscar servicios de jardiner&#237;a</text><rect fill="#F1F1F1" height="34.584" rx="12.5" ry="12.5" style="stroke:#181818;stroke-width:0.5;" width="121" x="62.5" y="133.7393"/><text fill="#000000" font-family="sans-serif" font-size="12" lengthAdjust="spacing" textLength="101" x="72.5" y="155.8037">Revisar rese&#241;as</text><rect fill="#F1F1F1" height="34.584" rx="12.5" ry="12.5" style="stroke:#181818;stroke-width:0.5;" width="131" x="57.5" y="188.3232"/><text fill="#000000" font-family="sans-serif" font-size="12" lengthAdjust="spacing" textLength="111" x="67.5" y="210.3877">Comparar precios</text><rect fill="#F1F1F1" height="34.584" rx="12.5" ry="12.5" style="stroke:#181818;stroke-width:0.5;" width="160" x="43" y="242.9072"/><text fill="#000000" font-family="sans-serif" font-size="12" lengthAdjust="spacing" textLength="140" x="53" y="264.9717">Seleccionar Proveedor</text><rect fill="#F1F1F1" height="34.584" rx="12.5" ry="12.5" style="stroke:#181818;stroke-width:0.5;" width="102" x="72" y="297.4912"/><text fill="#000000" font-family="sans-serif" font-size="12" lengthAdjust="spacing" textLength="82" x="82" y="319.5557">Agendar Cita</text><rect fill="#F1F1F1" height="34.584" rx="12.5" ry="12.5" style="stroke:#181818;stroke-width:0.5;" width="143" x="51.5" y="515.8271"/><text fill="#000000" font-family="sans-serif" font-size="12" lengthAdjust="spacing" textLength="123" x="61.5" y="537.8916">Recibir confirmaci&#243;n</text><ellipse cx="123" cy="581.4111" fill="none" rx="11" ry="11" style="stroke:#222222;stroke-width:1.0;"/><ellipse cx="123" cy="581.4111" fill="#222222" rx="6" ry="6" style="stroke:#222222;stroke-width:1.0;"/><line style="stroke:#000000;stroke-width:1.5;" x1="15" x2="15" y1="12.2793" y2="592.4111"/><rect fill="#F1F1F1" height="34.584" rx="12.5" ry="12.5" style="stroke:#181818;stroke-width:0.5;" width="111" x="266" y="352.0752"/><text fill="#000000" font-family="sans-serif" font-size="12" lengthAdjust="spacing" textLength="91" x="276" y="374.1396">Procesar pago</text><rect fill="#F1F1F1" height="34.584" rx="12.5" ry="12.5" style="stroke:#181818;stroke-width:0.5;" width="155" x="244" y="406.6592"/><text fill="#000000" font-family="sans-serif" font-size="12" lengthAdjust="spacing" textLength="135" x="254" y="428.7236">Notificar al proveedor</text><rect fill="#F1F1F1" height="34.584" rx="12.5" ry="12.5" style="stroke:#181818;stroke-width:0.5;" width="173" x="235" y="461.2432"/><text fill="#000000" font-family="sans-serif" font-size="12" lengthAdjust="spacing" textLength="153" x="245" y="483.3076">Confirmar cita al usuario</text><line style="stroke:#000000;stroke-width:1.5;" x1="229" x2="229" y1="12.2793" y2="592.4111"/><line style="stroke:#000000;stroke-width:1.5;" x1="412" x2="412" y1="12.2793" y2="592.4111"/><line style="stroke:#181818;stroke-width:1.0;" x1="123" x2="123" y1="59.1553" y2="79.1553"/><polygon fill="#181818" points="119,69.1553,123,79.1553,127,69.1553,123,73.1553" style="stroke:#181818;stroke-width:1.0;"/><line style="stroke:#181818;stroke-width:1.0;" x1="123" x2="123" y1="113.7393" y2="133.7393"/><polygon fill="#181818" points="119,123.7393,123,133.7393,127,123.7393,123,127.7393" style="stroke:#181818;stroke-width:1.0;"/><line style="stroke:#181818;stroke-width:1.0;" x1="123" x2="123" y1="168.3232" y2="188.3232"/><polygon fill="#181818" points="119,178.3232,123,188.3232,127,178.3232,123,182.3232" style="stroke:#181818;stroke-width:1.0;"/><line style="stroke:#181818;stroke-width:1.0;" x1="123" x2="123" y1="222.9072" y2="242.9072"/><polygon fill="#181818" points="119,232.9072,123,242.9072,127,232.9072,123,236.9072" style="stroke:#181818;stroke-width:1.0;"/><line style="stroke:#181818;stroke-width:1.0;" x1="123" x2="123" y1="277.4912" y2="297.4912"/><polygon fill="#181818" points="119,287.4912,123,297.4912,127,287.4912,123,291.4912" style="stroke:#181818;stroke-width:1.0;"/><line style="stroke:#181818;stroke-width:1.0;" x1="123" x2="123" y1="550.4111" y2="570.4111"/><polygon fill="#181818" points="119,560.4111,123,570.4111,127,560.4111,123,564.4111" style="stroke:#181818;stroke-width:1.0;"/><line style="stroke:#181818;stroke-width:1.0;" x1="321.5" x2="321.5" y1="386.6592" y2="406.6592"/><polygon fill="#181818" points="317.5,396.6592,321.5,406.6592,325.5,396.6592,321.5,400.6592" style="stroke:#181818;stroke-width:1.0;"/><line style="stroke:#181818;stroke-width:1.0;" x1="321.5" x2="321.5" y1="441.2432" y2="461.2432"/><polygon fill="#181818" points="317.5,451.2432,321.5,461.2432,325.5,451.2432,321.5,455.2432" style="stroke:#181818;stroke-width:1.0;"/><line style="stroke:#181818;stroke-width:1.0;" x1="123" x2="123" y1="332.0752" y2="337.0752"/><line style="stroke:#181818;stroke-width:1.0;" x1="123" x2="321.5" y1="337.0752" y2="337.0752"/><line style="stroke:#181818;stroke-width:1.0;" x1="321.5" x2="321.5" y1="337.0752" y2="352.0752"/><polygon fill="#181818" points="317.5,342.0752,321.5,352.0752,325.5,342.0752,321.5,346.0752" style="stroke:#181818;stroke-width:1.0;"/><line style="stroke:#181818;stroke-width:1.0;" x1="321.5" x2="321.5" y1="495.8271" y2="500.8271"/><line style="stroke:#181818;stroke-width:1.0;" x1="321.5" x2="123" y1="500.8271" y2="500.8271"/><line style="stroke:#181818;stroke-width:1.0;" x1="123" x2="123" y1="500.8271" y2="515.8271"/><polygon fill="#181818" points="119,505.8271,123,515.8271,127,505.8271,123,509.8271" style="stroke:#181818;stroke-width:1.0;"/><text fill="#000000" font-family="sans-serif" font-size="18" lengthAdjust="spacing" textLength="68" x="88" y="30.376">Usuario</text><text fill="#000000" font-family="sans-serif" font-size="18" lengthAdjust="spacing" textLength="77" x="282" y="30.376">Servidor</text><!--SRC=[HOyn3i8m34NtdABdQ2VeZX0L1p29MncrSUMqdN8b1iGHUZ5-188jUlv-yS_Nj9A9PfSMiiNLnpLviYgnRU95KnMukfC5YMpxWnfNNtYJX8Xnulr92QZLQIO3cutB4b378tky8-ZPT6CEQk27WMC0QsM1B7Vb7qoogv7oNCGp3OhaIHVffHn38yH_HQkn5vimy92KwVef0T-l3ixqSXDalcal-oisgAcpSsy0]--></g></svg>