<?xml version="1.0" encoding="us-ascii" standalone="no"?><svg xmlns="http://www.w3.org/2000/svg" xmlns:xlink="http://www.w3.org/1999/xlink" contentStyleType="text/css" height="397px" preserveAspectRatio="none" style="width:709px;height:397px;background:#FFFFFF;" version="1.1" viewBox="0 0 709 397" width="709px" zoomAndPan="magnify"><defs/><g><!--cluster Plataforma--><g id="cluster_Plataforma"><rect fill="none" height="285.01" rx="2.5" ry="2.5" style="stroke:#181818;stroke-width:1.0;" width="696" x="7" y="106.8"/><text fill="#000000" font-family="sans-serif" font-size="14" font-weight="bold" lengthAdjust="spacing" textLength="84" x="313" y="121.7951">Plataforma</text></g><g id="elem_UC1"><ellipse cx="590.9991" cy="165.3818" fill="#F1F1F1" rx="96.3591" ry="21.6718" style="stroke:#181818;stroke-width:0.5;"/><text fill="#000000" font-family="sans-serif" font-size="14" lengthAdjust="spacing" textLength="156" x="512.9991" y="168.2285">Elegir M&#233;todo de Pago</text></g><g id="elem_UC2"><ellipse cx="353.9986" cy="165.3817" fill="#F1F1F1" rx="105.9086" ry="23.5817" style="stroke:#181818;stroke-width:0.5;"/><text fill="#000000" font-family="sans-serif" font-size="14" lengthAdjust="spacing" textLength="177" x="265.4986" y="168.2284">Ingresar Detalles de Pago</text></g><g id="elem_UC3"><ellipse cx="118.0004" cy="165.3821" fill="#F1F1F1" rx="95.4604" ry="21.4921" style="stroke:#181818;stroke-width:0.5;"/><text fill="#000000" font-family="sans-serif" font-size="14" lengthAdjust="spacing" textLength="154" x="41.0004" y="168.2288">Confirmar Transacci&#243;n</text></g><g id="elem_UC4"><ellipse cx="117.9968" cy="265.8974" fill="#F1F1F1" rx="72.6868" ry="16.9374" style="stroke:#181818;stroke-width:0.5;"/><text fill="#000000" font-family="sans-serif" font-size="14" lengthAdjust="spacing" textLength="100" x="64.9968" y="269.6449">Procesar Pago</text></g><g id="elem_UC5"><ellipse cx="118.0033" cy="359.3167" fill="#F1F1F1" rx="70.4333" ry="16.4867" style="stroke:#181818;stroke-width:0.5;"/><text fill="#000000" font-family="sans-serif" font-size="14" lengthAdjust="spacing" textLength="94" x="68.0033" y="363.0642">Notificar Pago</text></g><!--entity user--><g id="elem_user"><ellipse cx="354" cy="14" fill="#F1F1F1" rx="8" ry="8" style="stroke:#181818;stroke-width:0.5;"/><path d="M354,22 L354,49 M341,30 L367,30 M354,49 L341,64 M354,49 L367,64 " fill="none" style="stroke:#181818;stroke-width:0.5;"/><text fill="#000000" font-family="sans-serif" font-size="14" lengthAdjust="spacing" textLength="52" x="328" y="78.4951">Usuario</text></g><!--link user to UC1--><g id="link_user_UC1"><path d="M380.29,55.26 C405.46,65.64 444.31,82.26 477,98.8 C505.12,113.02 536.05,130.97 558.59,144.49 " fill="none" id="user-UC1" style="stroke:#181818;stroke-width:1.0;"/></g><!--link user to UC2--><g id="link_user_UC2"><path d="M354,82.2 C354,101.68 354,124.83 354,141.59 " fill="none" id="user-UC2" style="stroke:#181818;stroke-width:1.0;"/></g><!--link user to UC3--><g id="link_user_UC3"><path d="M327.69,55.23 C302.52,65.59 263.65,82.2 231,98.8 C202.89,113.09 172,131.19 149.62,144.76 " fill="none" id="user-UC3" style="stroke:#181818;stroke-width:1.0;"/></g><!--link UC3 to UC4--><g id="link_UC3_UC4"><path d="M118,187.27 C118,205.57 118,231.8 118,248.59 " fill="none" id="UC3-UC4" style="stroke:#181818;stroke-width:1.0;"/></g><!--link UC4 to UC5--><g id="link_UC4_UC5"><path d="M118,283.24 C118,299.99 118,325.85 118,342.43 " fill="none" id="UC4-UC5" style="stroke:#181818;stroke-width:1.0;"/></g><!--SRC=[NOyn3i8m34NtdCBgte7Idg0mC80wq0DOgHj52h7af1FYGCmSeHSZRP4839QUz9- -RTIH1Oe-J2YM2y00Ko1HGZgYDuwWw1n675bkMC1TmP9h32auEZ9Mu3m_8myC0q67PklesrrkdhmH2YXme8ZEKVYJgrnksOysRHEu2lg0MjlvvJ_cFZSxORtMPbLrBbmusj7gNwDH3xNy26MvtldbAkEzIhDXdR3Ui7a3]--></g></svg>