<?xml version="1.0" encoding="us-ascii" standalone="no"?><svg xmlns="http://www.w3.org/2000/svg" xmlns:xlink="http://www.w3.org/1999/xlink" contentStyleType="text/css" height="641px" preserveAspectRatio="none" style="width:358px;height:641px;background:#FFFFFF;" version="1.1" viewBox="0 0 358 641" width="358px" zoomAndPan="magnify"><defs/><g><!--class Usuario--><g id="elem_Usuario"><rect codeLine="6" fill="#F1F1F1" height="99.0439" id="Usuario" rx="2.5" ry="2.5" style="stroke:#181818;stroke-width:0.5;" width="90" x="54.5" y="200.07"/><ellipse cx="71.75" cy="216.07" fill="#ADD1B2" rx="11" ry="11" style="stroke:#181818;stroke-width:1.0;"/><path d="M70.6094,216.8669 L70.6094,219.3669 L74.9375,219.3669 L74.9375,218.445 Q74.9375,217.8356 75.1719,217.57 Q75.4219,217.3044 75.7969,217.3044 Q76.1719,217.3044 76.4063,217.57 Q76.6406,217.8356 76.6406,218.445 L76.6406,221.07 L68.6406,221.07 Q68.0156,221.07 67.75,220.8356 Q67.5,220.6013 67.5,220.2106 Q67.5,219.8356 67.7656,219.6013 Q68.0313,219.3669 68.6406,219.3669 L68.9063,219.3669 L68.9063,212.7106 L68.6406,212.7106 Q68.0156,212.7106 67.75,212.4763 Q67.5,212.2419 67.5,211.8513 Q67.5,211.4763 67.75,211.2419 Q68.0156,211.0075 68.6406,211.0075 L76.2656,211.0075 L76.2656,213.6013 Q76.2656,214.2106 76.0313,214.4763 Q75.8125,214.7263 75.4219,214.7263 Q75.0469,214.7263 74.8125,214.4763 Q74.5781,214.2106 74.5781,213.6013 L74.5781,212.7106 L70.6094,212.7106 L70.6094,215.1638 L72.0938,215.1638 Q72.0938,214.5075 72.2188,214.32 Q72.4844,213.9138 72.9531,213.9138 Q73.3281,213.9138 73.5625,214.1794 Q73.7969,214.4294 73.7969,215.0388 L73.7969,217.0075 Q73.7969,217.5544 73.6719,217.7419 Q73.4063,218.1325 72.9531,218.1325 Q72.4844,218.1325 72.2188,217.7263 Q72.0938,217.5388 72.0938,216.8669 L70.6094,216.8669 Z " fill="#000000"/><text fill="#000000" font-family="sans-serif" font-size="14" lengthAdjust="spacing" textLength="53" x="86.25" y="221.6379">Usuario</text><line style="stroke:#181818;stroke-width:0.5;" x1="55.5" x2="143.5" y1="232.07" y2="232.07"/><text fill="#000000" font-family="sans-serif" font-size="14" lengthAdjust="spacing" textLength="54" x="60.5" y="250.1452">nombre</text><text fill="#000000" font-family="sans-serif" font-size="14" lengthAdjust="spacing" textLength="35" x="60.5" y="267.1598">email</text><text fill="#000000" font-family="sans-serif" font-size="14" lengthAdjust="spacing" textLength="78" x="60.5" y="284.1745">contrasena</text><line style="stroke:#181818;stroke-width:0.5;" x1="55.5" x2="143.5" y1="291.1139" y2="291.1139"/></g><!--class Proveedor--><g id="elem_Proveedor"><rect codeLine="12" fill="#F1F1F1" height="133.0732" id="Proveedor" rx="2.5" ry="2.5" style="stroke:#181818;stroke-width:0.5;" width="109" x="219" y="7"/><ellipse cx="236.7" cy="23" fill="#ADD1B2" rx="11" ry="11" style="stroke:#181818;stroke-width:1.0;"/><path d="M235.5594,23.7969 L235.5594,26.2969 L239.8875,26.2969 L239.8875,25.375 Q239.8875,24.7656 240.1219,24.5 Q240.3719,24.2344 240.7469,24.2344 Q241.1219,24.2344 241.3563,24.5 Q241.5906,24.7656 241.5906,25.375 L241.5906,28 L233.5906,28 Q232.9656,28 232.7,27.7656 Q232.45,27.5313 232.45,27.1406 Q232.45,26.7656 232.7156,26.5313 Q232.9813,26.2969 233.5906,26.2969 L233.8563,26.2969 L233.8563,19.6406 L233.5906,19.6406 Q232.9656,19.6406 232.7,19.4063 Q232.45,19.1719 232.45,18.7813 Q232.45,18.4063 232.7,18.1719 Q232.9656,17.9375 233.5906,17.9375 L241.2156,17.9375 L241.2156,20.5313 Q241.2156,21.1406 240.9813,21.4063 Q240.7625,21.6563 240.3719,21.6563 Q239.9969,21.6563 239.7625,21.4063 Q239.5281,21.1406 239.5281,20.5313 L239.5281,19.6406 L235.5594,19.6406 L235.5594,22.0938 L237.0438,22.0938 Q237.0438,21.4375 237.1688,21.25 Q237.4344,20.8438 237.9031,20.8438 Q238.2781,20.8438 238.5125,21.1094 Q238.7469,21.3594 238.7469,21.9688 L238.7469,23.9375 Q238.7469,24.4844 238.6219,24.6719 Q238.3563,25.0625 237.9031,25.0625 Q237.4344,25.0625 237.1688,24.6563 Q237.0438,24.4688 237.0438,23.7969 L235.5594,23.7969 Z " fill="#000000"/><text fill="#000000" font-family="sans-serif" font-size="14" lengthAdjust="spacing" textLength="71" x="251.3" y="28.5679">Proveedor</text><line style="stroke:#181818;stroke-width:0.5;" x1="220" x2="327" y1="39" y2="39"/><text fill="#000000" font-family="sans-serif" font-size="14" lengthAdjust="spacing" textLength="54" x="225" y="57.0752">nombre</text><text fill="#000000" font-family="sans-serif" font-size="14" lengthAdjust="spacing" textLength="35" x="225" y="74.0898">email</text><text fill="#000000" font-family="sans-serif" font-size="14" lengthAdjust="spacing" textLength="78" x="225" y="91.1045">contrasena</text><text fill="#000000" font-family="sans-serif" font-size="14" lengthAdjust="spacing" textLength="97" x="225" y="108.1191">certificaciones</text><text fill="#000000" font-family="sans-serif" font-size="14" lengthAdjust="spacing" textLength="66" x="225" y="125.1338">verificado</text><line style="stroke:#181818;stroke-width:0.5;" x1="220" x2="327" y1="132.0732" y2="132.0732"/></g><!--class Servicio--><g id="elem_Servicio"><rect codeLine="20" fill="#F1F1F1" height="99.0439" id="Servicio" rx="2.5" ry="2.5" style="stroke:#181818;stroke-width:0.5;" width="90" x="179.5" y="200.07"/><ellipse cx="196.3" cy="216.07" fill="#ADD1B2" rx="11" ry="11" style="stroke:#181818;stroke-width:1.0;"/><path d="M195.1594,216.8669 L195.1594,219.3669 L199.4875,219.3669 L199.4875,218.445 Q199.4875,217.8356 199.7219,217.57 Q199.9719,217.3044 200.3469,217.3044 Q200.7219,217.3044 200.9563,217.57 Q201.1906,217.8356 201.1906,218.445 L201.1906,221.07 L193.1906,221.07 Q192.5656,221.07 192.3,220.8356 Q192.05,220.6013 192.05,220.2106 Q192.05,219.8356 192.3156,219.6013 Q192.5813,219.3669 193.1906,219.3669 L193.4563,219.3669 L193.4563,212.7106 L193.1906,212.7106 Q192.5656,212.7106 192.3,212.4763 Q192.05,212.2419 192.05,211.8513 Q192.05,211.4763 192.3,211.2419 Q192.5656,211.0075 193.1906,211.0075 L200.8156,211.0075 L200.8156,213.6013 Q200.8156,214.2106 200.5813,214.4763 Q200.3625,214.7263 199.9719,214.7263 Q199.5969,214.7263 199.3625,214.4763 Q199.1281,214.2106 199.1281,213.6013 L199.1281,212.7106 L195.1594,212.7106 L195.1594,215.1638 L196.6438,215.1638 Q196.6438,214.5075 196.7688,214.32 Q197.0344,213.9138 197.5031,213.9138 Q197.8781,213.9138 198.1125,214.1794 Q198.3469,214.4294 198.3469,215.0388 L198.3469,217.0075 Q198.3469,217.5544 198.2219,217.7419 Q197.9563,218.1325 197.5031,218.1325 Q197.0344,218.1325 196.7688,217.7263 Q196.6438,217.5388 196.6438,216.8669 L195.1594,216.8669 Z " fill="#000000"/><text fill="#000000" font-family="sans-serif" font-size="14" lengthAdjust="spacing" textLength="54" x="210.7" y="221.6379">Servicio</text><line style="stroke:#181818;stroke-width:0.5;" x1="180.5" x2="268.5" y1="232.07" y2="232.07"/><text fill="#000000" font-family="sans-serif" font-size="14" lengthAdjust="spacing" textLength="54" x="185.5" y="250.1452">nombre</text><text fill="#000000" font-family="sans-serif" font-size="14" lengthAdjust="spacing" textLength="78" x="185.5" y="267.1598">descripcion</text><text fill="#000000" font-family="sans-serif" font-size="14" lengthAdjust="spacing" textLength="42" x="185.5" y="284.1745">precio</text><line style="stroke:#181818;stroke-width:0.5;" x1="180.5" x2="268.5" y1="291.1139" y2="291.1139"/></g><!--class Reserva--><g id="elem_Reserva"><rect codeLine="25" fill="#F1F1F1" height="99.0439" id="Reserva" rx="2.5" ry="2.5" style="stroke:#181818;stroke-width:0.5;" width="89" x="229" y="359.12"/><ellipse cx="244.45" cy="375.12" fill="#ADD1B2" rx="11" ry="11" style="stroke:#181818;stroke-width:1.0;"/><path d="M243.3094,375.9169 L243.3094,378.4169 L247.6375,378.4169 L247.6375,377.495 Q247.6375,376.8856 247.8719,376.62 Q248.1219,376.3544 248.4969,376.3544 Q248.8719,376.3544 249.1063,376.62 Q249.3406,376.8856 249.3406,377.495 L249.3406,380.12 L241.3406,380.12 Q240.7156,380.12 240.45,379.8856 Q240.2,379.6513 240.2,379.2606 Q240.2,378.8856 240.4656,378.6513 Q240.7313,378.4169 241.3406,378.4169 L241.6063,378.4169 L241.6063,371.7606 L241.3406,371.7606 Q240.7156,371.7606 240.45,371.5263 Q240.2,371.2919 240.2,370.9013 Q240.2,370.5263 240.45,370.2919 Q240.7156,370.0575 241.3406,370.0575 L248.9656,370.0575 L248.9656,372.6513 Q248.9656,373.2606 248.7313,373.5263 Q248.5125,373.7763 248.1219,373.7763 Q247.7469,373.7763 247.5125,373.5263 Q247.2781,373.2606 247.2781,372.6513 L247.2781,371.7606 L243.3094,371.7606 L243.3094,374.2138 L244.7938,374.2138 Q244.7938,373.5575 244.9188,373.37 Q245.1844,372.9638 245.6531,372.9638 Q246.0281,372.9638 246.2625,373.2294 Q246.4969,373.4794 246.4969,374.0888 L246.4969,376.0575 Q246.4969,376.6044 246.3719,376.7919 Q246.1063,377.1825 245.6531,377.1825 Q245.1844,377.1825 244.9188,376.7763 Q244.7938,376.5888 244.7938,375.9169 L243.3094,375.9169 Z " fill="#000000"/><text fill="#000000" font-family="sans-serif" font-size="14" lengthAdjust="spacing" textLength="56" x="258.55" y="380.6879">Reserva</text><line style="stroke:#181818;stroke-width:0.5;" x1="230" x2="317" y1="391.12" y2="391.12"/><text fill="#000000" font-family="sans-serif" font-size="14" lengthAdjust="spacing" textLength="37" x="235" y="409.1952">fecha</text><text fill="#000000" font-family="sans-serif" font-size="14" lengthAdjust="spacing" textLength="40" x="235" y="426.2098">notas</text><text fill="#000000" font-family="sans-serif" font-size="14" lengthAdjust="spacing" textLength="77" x="235" y="443.2245">confirmada</text><line style="stroke:#181818;stroke-width:0.5;" x1="230" x2="317" y1="450.1639" y2="450.1639"/></g><!--class Pago--><g id="elem_Pago"><rect codeLine="30" fill="#F1F1F1" height="99.0439" id="Pago" rx="2.5" ry="2.5" style="stroke:#181818;stroke-width:0.5;" width="66" x="240.5" y="526.67"/><ellipse cx="255.5" cy="542.67" fill="#ADD1B2" rx="11" ry="11" style="stroke:#181818;stroke-width:1.0;"/><path d="M254.3594,543.4669 L254.3594,545.9669 L258.6875,545.9669 L258.6875,545.045 Q258.6875,544.4356 258.9219,544.17 Q259.1719,543.9044 259.5469,543.9044 Q259.9219,543.9044 260.1563,544.17 Q260.3906,544.4356 260.3906,545.045 L260.3906,547.67 L252.3906,547.67 Q251.7656,547.67 251.5,547.4356 Q251.25,547.2013 251.25,546.8106 Q251.25,546.4356 251.5156,546.2013 Q251.7813,545.9669 252.3906,545.9669 L252.6563,545.9669 L252.6563,539.3106 L252.3906,539.3106 Q251.7656,539.3106 251.5,539.0763 Q251.25,538.8419 251.25,538.4513 Q251.25,538.0763 251.5,537.8419 Q251.7656,537.6075 252.3906,537.6075 L260.0156,537.6075 L260.0156,540.2013 Q260.0156,540.8106 259.7813,541.0763 Q259.5625,541.3263 259.1719,541.3263 Q258.7969,541.3263 258.5625,541.0763 Q258.3281,540.8106 258.3281,540.2013 L258.3281,539.3106 L254.3594,539.3106 L254.3594,541.7638 L255.8438,541.7638 Q255.8438,541.1075 255.9688,540.92 Q256.2344,540.5138 256.7031,540.5138 Q257.0781,540.5138 257.3125,540.7794 Q257.5469,541.0294 257.5469,541.6388 L257.5469,543.6075 Q257.5469,544.1544 257.4219,544.3419 Q257.1563,544.7325 256.7031,544.7325 Q256.2344,544.7325 255.9688,544.3263 Q255.8438,544.1388 255.8438,543.4669 L254.3594,543.4669 Z " fill="#000000"/><text fill="#000000" font-family="sans-serif" font-size="14" lengthAdjust="spacing" textLength="34" x="269.5" y="548.2379">Pago</text><line style="stroke:#181818;stroke-width:0.5;" x1="241.5" x2="305.5" y1="558.67" y2="558.67"/><text fill="#000000" font-family="sans-serif" font-size="14" lengthAdjust="spacing" textLength="46" x="246.5" y="576.7452">monto</text><text fill="#000000" font-family="sans-serif" font-size="14" lengthAdjust="spacing" textLength="37" x="246.5" y="593.7598">fecha</text><text fill="#000000" font-family="sans-serif" font-size="14" lengthAdjust="spacing" textLength="54" x="246.5" y="610.7745">metodo</text><line style="stroke:#181818;stroke-width:0.5;" x1="241.5" x2="305.5" y1="617.7139" y2="617.7139"/></g><!--class Resena--><g id="elem_Resena"><rect codeLine="35" fill="#F1F1F1" height="99.0439" id="Resena" rx="2.5" ry="2.5" style="stroke:#181818;stroke-width:0.5;" width="90" x="104.5" y="359.12"/><ellipse cx="122.65" cy="375.12" fill="#ADD1B2" rx="11" ry="11" style="stroke:#181818;stroke-width:1.0;"/><path d="M121.5094,375.9169 L121.5094,378.4169 L125.8375,378.4169 L125.8375,377.495 Q125.8375,376.8856 126.0719,376.62 Q126.3219,376.3544 126.6969,376.3544 Q127.0719,376.3544 127.3063,376.62 Q127.5406,376.8856 127.5406,377.495 L127.5406,380.12 L119.5406,380.12 Q118.9156,380.12 118.65,379.8856 Q118.4,379.6513 118.4,379.2606 Q118.4,378.8856 118.6656,378.6513 Q118.9313,378.4169 119.5406,378.4169 L119.8063,378.4169 L119.8063,371.7606 L119.5406,371.7606 Q118.9156,371.7606 118.65,371.5263 Q118.4,371.2919 118.4,370.9013 Q118.4,370.5263 118.65,370.2919 Q118.9156,370.0575 119.5406,370.0575 L127.1656,370.0575 L127.1656,372.6513 Q127.1656,373.2606 126.9313,373.5263 Q126.7125,373.7763 126.3219,373.7763 Q125.9469,373.7763 125.7125,373.5263 Q125.4781,373.2606 125.4781,372.6513 L125.4781,371.7606 L121.5094,371.7606 L121.5094,374.2138 L122.9938,374.2138 Q122.9938,373.5575 123.1188,373.37 Q123.3844,372.9638 123.8531,372.9638 Q124.2281,372.9638 124.4625,373.2294 Q124.6969,373.4794 124.6969,374.0888 L124.6969,376.0575 Q124.6969,376.6044 124.5719,376.7919 Q124.3063,377.1825 123.8531,377.1825 Q123.3844,377.1825 123.1188,376.7763 Q122.9938,376.5888 122.9938,375.9169 L121.5094,375.9169 Z " fill="#000000"/><text fill="#000000" font-family="sans-serif" font-size="14" lengthAdjust="spacing" textLength="51" x="137.35" y="380.6879">Resena</text><line style="stroke:#181818;stroke-width:0.5;" x1="105.5" x2="193.5" y1="391.12" y2="391.12"/><text fill="#000000" font-family="sans-serif" font-size="14" lengthAdjust="spacing" textLength="72" x="110.5" y="409.1952">calificacion</text><text fill="#000000" font-family="sans-serif" font-size="14" lengthAdjust="spacing" textLength="78" x="110.5" y="426.2098">comentario</text><text fill="#000000" font-family="sans-serif" font-size="14" lengthAdjust="spacing" textLength="37" x="110.5" y="443.2245">fecha</text><line style="stroke:#181818;stroke-width:0.5;" x1="105.5" x2="193.5" y1="450.1639" y2="450.1639"/></g><!--class Soporte--><g id="elem_Soporte"><rect codeLine="40" fill="#F1F1F1" height="116.0586" id="Soporte" rx="2.5" ry="2.5" style="stroke:#181818;stroke-width:0.5;" width="90" x="55.5" y="518.16"/><ellipse cx="70.95" cy="534.16" fill="#ADD1B2" rx="11" ry="11" style="stroke:#181818;stroke-width:1.0;"/><path d="M69.8094,534.9569 L69.8094,537.4569 L74.1375,537.4569 L74.1375,536.535 Q74.1375,535.9256 74.3719,535.66 Q74.6219,535.3944 74.9969,535.3944 Q75.3719,535.3944 75.6063,535.66 Q75.8406,535.9256 75.8406,536.535 L75.8406,539.16 L67.8406,539.16 Q67.2156,539.16 66.95,538.9256 Q66.7,538.6913 66.7,538.3006 Q66.7,537.9256 66.9656,537.6913 Q67.2313,537.4569 67.8406,537.4569 L68.1063,537.4569 L68.1063,530.8006 L67.8406,530.8006 Q67.2156,530.8006 66.95,530.5663 Q66.7,530.3319 66.7,529.9413 Q66.7,529.5663 66.95,529.3319 Q67.2156,529.0975 67.8406,529.0975 L75.4656,529.0975 L75.4656,531.6913 Q75.4656,532.3006 75.2313,532.5663 Q75.0125,532.8163 74.6219,532.8163 Q74.2469,532.8163 74.0125,532.5663 Q73.7781,532.3006 73.7781,531.6913 L73.7781,530.8006 L69.8094,530.8006 L69.8094,533.2538 L71.2938,533.2538 Q71.2938,532.5975 71.4188,532.41 Q71.6844,532.0038 72.1531,532.0038 Q72.5281,532.0038 72.7625,532.2694 Q72.9969,532.5194 72.9969,533.1288 L72.9969,535.0975 Q72.9969,535.6444 72.8719,535.8319 Q72.6063,536.2225 72.1531,536.2225 Q71.6844,536.2225 71.4188,535.8163 Q71.2938,535.6288 71.2938,534.9569 L69.8094,534.9569 Z " fill="#000000"/><text fill="#000000" font-family="sans-serif" font-size="14" lengthAdjust="spacing" textLength="57" x="85.05" y="539.7279">Soporte</text><line style="stroke:#181818;stroke-width:0.5;" x1="56.5" x2="144.5" y1="550.16" y2="550.16"/><text fill="#000000" font-family="sans-serif" font-size="14" lengthAdjust="spacing" textLength="27" x="61.5" y="568.2352">tipo</text><text fill="#000000" font-family="sans-serif" font-size="14" lengthAdjust="spacing" textLength="78" x="61.5" y="585.2498">descripcion</text><text fill="#000000" font-family="sans-serif" font-size="14" lengthAdjust="spacing" textLength="37" x="61.5" y="602.2645">fecha</text><text fill="#000000" font-family="sans-serif" font-size="14" lengthAdjust="spacing" textLength="48" x="61.5" y="619.2791">estado</text><line style="stroke:#181818;stroke-width:0.5;" x1="56.5" x2="144.5" y1="626.2186" y2="626.2186"/></g><!--link Usuario to Reserva--><g id="link_Usuario_Reserva"><path codeLine="47" d="M131.17,307.57 C131.17,323.57 131.17,329.22 131.17,329.22 C131.17,329.22 242.5,329.22 242.5,329.22 C242.5,329.22 242.5,324.84 242.5,340.79 " fill="none" id="Usuario-Reserva" style="stroke:#181818;stroke-width:1.0;"/><line style="stroke:#181818;stroke-width:1.0;" x1="127.17" x2="135.17" y1="303.57" y2="303.57"/><line style="stroke:#181818;stroke-width:1.0;" x1="127.17" x2="135.17" y1="306.57" y2="306.57"/><line style="stroke:#181818;stroke-width:1.0;" x1="131.17" x2="131.17" y1="307.57" y2="299.57"/><line style="stroke:#181818;stroke-width:1.0;" x1="242.5" x2="248.5" y1="350.79" y2="358.79"/><line style="stroke:#181818;stroke-width:1.0;" x1="242.5" x2="236.5" y1="350.79" y2="358.79"/><line style="stroke:#181818;stroke-width:1.0;" x1="242.5" x2="242.5" y1="350.79" y2="358.79"/><ellipse cx="242.5" cy="344.79" fill="none" rx="4" ry="4" style="stroke:#181818;stroke-width:1.0;"/><text fill="#000000" font-family="sans-serif" font-size="13" lengthAdjust="spacing" textLength="32" x="153.8" y="326.2898">hace</text></g><!--link Usuario to Resena--><g id="link_Usuario_Resena"><path codeLine="48" d="M117.83,307.48 C117.83,326.34 117.83,321.79 117.83,340.66 " fill="none" id="Usuario-Resena" style="stroke:#181818;stroke-width:1.0;"/><line style="stroke:#181818;stroke-width:1.0;" x1="113.83" x2="121.83" y1="303.48" y2="303.48"/><line style="stroke:#181818;stroke-width:1.0;" x1="113.83" x2="121.83" y1="306.48" y2="306.48"/><line style="stroke:#181818;stroke-width:1.0;" x1="117.83" x2="117.83" y1="307.48" y2="299.48"/><line style="stroke:#181818;stroke-width:1.0;" x1="117.83" x2="123.83" y1="350.66" y2="358.66"/><line style="stroke:#181818;stroke-width:1.0;" x1="117.83" x2="111.83" y1="350.66" y2="358.66"/><line style="stroke:#181818;stroke-width:1.0;" x1="117.83" x2="117.83" y1="350.66" y2="358.66"/><ellipse cx="117.83" cy="344.66" fill="none" rx="4" ry="4" style="stroke:#181818;stroke-width:1.0;"/><text fill="#000000" font-family="sans-serif" font-size="13" lengthAdjust="spacing" textLength="47" x="69.83" y="326.1398">escribe</text></g><!--link Usuario to Soporte--><g id="link_Usuario_Soporte"><path codeLine="49" d="M80,307.55 C80,366.25 80,437.51 80,499.68 " fill="none" id="Usuario-Soporte" style="stroke:#181818;stroke-width:1.0;"/><line style="stroke:#181818;stroke-width:1.0;" x1="76" x2="84" y1="303.55" y2="303.55"/><line style="stroke:#181818;stroke-width:1.0;" x1="76" x2="84" y1="306.55" y2="306.55"/><line style="stroke:#181818;stroke-width:1.0;" x1="80" x2="80" y1="307.55" y2="299.55"/><line style="stroke:#181818;stroke-width:1.0;" x1="80" x2="86" y1="509.68" y2="517.68"/><line style="stroke:#181818;stroke-width:1.0;" x1="80" x2="74" y1="509.68" y2="517.68"/><line style="stroke:#181818;stroke-width:1.0;" x1="80" x2="80" y1="509.68" y2="517.68"/><ellipse cx="80" cy="503.68" fill="none" rx="4" ry="4" style="stroke:#181818;stroke-width:1.0;"/><text fill="#000000" font-family="sans-serif" font-size="13" lengthAdjust="spacing" textLength="46" x="33" y="405.6898">solicita</text></g><!--link Proveedor to Servicio--><g id="link_Proveedor_Servicio"><path codeLine="50" d="M244.25,148.35 C244.25,168.1 244.25,163.36 244.25,181.83 " fill="none" id="Proveedor-Servicio" style="stroke:#181818;stroke-width:1.0;"/><line style="stroke:#181818;stroke-width:1.0;" x1="240.25" x2="248.25" y1="144.35" y2="144.35"/><line style="stroke:#181818;stroke-width:1.0;" x1="240.25" x2="248.25" y1="147.35" y2="147.35"/><line style="stroke:#181818;stroke-width:1.0;" x1="244.25" x2="244.25" y1="148.35" y2="140.35"/><line style="stroke:#181818;stroke-width:1.0;" x1="244.25" x2="250.25" y1="191.83" y2="199.83"/><line style="stroke:#181818;stroke-width:1.0;" x1="244.25" x2="238.25" y1="191.83" y2="199.83"/><line style="stroke:#181818;stroke-width:1.0;" x1="244.25" x2="244.25" y1="191.83" y2="199.83"/><ellipse cx="244.25" cy="185.83" fill="none" rx="4" ry="4" style="stroke:#181818;stroke-width:1.0;"/><text fill="#000000" font-family="sans-serif" font-size="13" lengthAdjust="spacing" textLength="42" x="201.25" y="167.1598">ofrece</text></g><!--link Proveedor to Reserva--><g id="link_Proveedor_Reserva"><path codeLine="51" d="M293.75,148.54 C293.75,212.91 293.75,282.69 293.75,340.65 " fill="none" id="Proveedor-Reserva" style="stroke:#181818;stroke-width:1.0;"/><line style="stroke:#181818;stroke-width:1.0;" x1="289.75" x2="297.75" y1="144.54" y2="144.54"/><line style="stroke:#181818;stroke-width:1.0;" x1="289.75" x2="297.75" y1="147.54" y2="147.54"/><line style="stroke:#181818;stroke-width:1.0;" x1="293.75" x2="293.75" y1="148.54" y2="140.54"/><line style="stroke:#181818;stroke-width:1.0;" x1="293.75" x2="299.75" y1="350.65" y2="358.65"/><line style="stroke:#181818;stroke-width:1.0;" x1="293.75" x2="287.75" y1="350.65" y2="358.65"/><line style="stroke:#181818;stroke-width:1.0;" x1="293.75" x2="293.75" y1="350.65" y2="358.65"/><ellipse cx="293.75" cy="344.65" fill="none" rx="4" ry="4" style="stroke:#181818;stroke-width:1.0;"/><text fill="#000000" font-family="sans-serif" font-size="13" lengthAdjust="spacing" textLength="56" x="294.75" y="246.6698">confirma</text></g><!--link Servicio to Resena--><g id="link_Servicio_Resena"><path codeLine="52" d="M187,307.48 C187,326.34 187,321.79 187,340.66 " fill="none" id="Servicio-Resena" style="stroke:#181818;stroke-width:1.0;"/><line style="stroke:#181818;stroke-width:1.0;" x1="183" x2="191" y1="303.48" y2="303.48"/><line style="stroke:#181818;stroke-width:1.0;" x1="183" x2="191" y1="306.48" y2="306.48"/><line style="stroke:#181818;stroke-width:1.0;" x1="187" x2="187" y1="307.48" y2="299.48"/><line style="stroke:#181818;stroke-width:1.0;" x1="187" x2="193" y1="350.66" y2="358.66"/><line style="stroke:#181818;stroke-width:1.0;" x1="187" x2="181" y1="350.66" y2="358.66"/><line style="stroke:#181818;stroke-width:1.0;" x1="187" x2="187" y1="350.66" y2="358.66"/><ellipse cx="187" cy="344.66" fill="none" rx="4" ry="4" style="stroke:#181818;stroke-width:1.0;"/><text fill="#000000" font-family="sans-serif" font-size="13" lengthAdjust="spacing" textLength="33" x="188" y="343.1398">tiene</text></g><!--link Servicio to Reserva--><g id="link_Servicio_Reserva"><path codeLine="53" d="M256,307.48 C256,326.34 256,321.79 256,340.66 " fill="none" id="Servicio-Reserva" style="stroke:#181818;stroke-width:1.0;"/><line style="stroke:#181818;stroke-width:1.0;" x1="252" x2="260" y1="303.48" y2="303.48"/><line style="stroke:#181818;stroke-width:1.0;" x1="252" x2="260" y1="306.48" y2="306.48"/><line style="stroke:#181818;stroke-width:1.0;" x1="256" x2="256" y1="307.48" y2="299.48"/><line style="stroke:#181818;stroke-width:1.0;" x1="256" x2="262" y1="350.66" y2="358.66"/><line style="stroke:#181818;stroke-width:1.0;" x1="256" x2="250" y1="350.66" y2="358.66"/><line style="stroke:#181818;stroke-width:1.0;" x1="256" x2="256" y1="350.66" y2="358.66"/><ellipse cx="256" cy="344.66" fill="none" rx="4" ry="4" style="stroke:#181818;stroke-width:1.0;"/><text fill="#000000" font-family="sans-serif" font-size="13" lengthAdjust="spacing" textLength="67" x="188" y="326.1398">esParteDe</text></g><!--link Reserva to Pago--><g id="link_Reserva_Pago"><path codeLine="54" d="M273.5,466.46 C273.5,487.87 273.5,486.85 273.5,508.28 " fill="none" id="Reserva-Pago" style="stroke:#181818;stroke-width:1.0;"/><line style="stroke:#181818;stroke-width:1.0;" x1="269.5" x2="277.5" y1="462.46" y2="462.46"/><line style="stroke:#181818;stroke-width:1.0;" x1="269.5" x2="277.5" y1="465.46" y2="465.46"/><line style="stroke:#181818;stroke-width:1.0;" x1="273.5" x2="273.5" y1="466.46" y2="458.46"/><line style="stroke:#181818;stroke-width:1.0;" x1="273.5" x2="279.5" y1="518.28" y2="526.28"/><line style="stroke:#181818;stroke-width:1.0;" x1="273.5" x2="267.5" y1="518.28" y2="526.28"/><line style="stroke:#181818;stroke-width:1.0;" x1="273.5" x2="273.5" y1="518.28" y2="526.28"/><ellipse cx="273.5" cy="512.28" fill="none" rx="4" ry="4" style="stroke:#181818;stroke-width:1.0;"/><text fill="#000000" font-family="sans-serif" font-size="13" lengthAdjust="spacing" textLength="45" x="227.5" y="489.4398">genera</text></g><!--link Resena to Soporte--><g id="link_Resena_Soporte"><path codeLine="55" d="M125,466.46 C125,485.07 125,480.39 125,499.71 " fill="none" id="Resena-Soporte" style="stroke:#181818;stroke-width:1.0;"/><line style="stroke:#181818;stroke-width:1.0;" x1="121" x2="129" y1="462.46" y2="462.46"/><line style="stroke:#181818;stroke-width:1.0;" x1="121" x2="129" y1="465.46" y2="465.46"/><line style="stroke:#181818;stroke-width:1.0;" x1="125" x2="125" y1="466.46" y2="458.46"/><line style="stroke:#181818;stroke-width:1.0;" x1="125" x2="131" y1="509.71" y2="517.71"/><line style="stroke:#181818;stroke-width:1.0;" x1="125" x2="119" y1="509.71" y2="517.71"/><line style="stroke:#181818;stroke-width:1.0;" x1="125" x2="125" y1="509.71" y2="517.71"/><ellipse cx="125" cy="503.71" fill="none" rx="4" ry="4" style="stroke:#181818;stroke-width:1.0;"/><text fill="#000000" font-family="sans-serif" font-size="13" lengthAdjust="spacing" textLength="117" x="7" y="485.1598">tieneProblemaCon</text></g><!--SRC=[ZL9HReCm3Ftd5Bb0Bu2g_cm7g5Rj06umnHg9aPDLgjhTVIOaK34gZI_RUS_lsIPyaHz0m9cUFCRRW8ObTbnL7JLezllFy0r2V3WOIs9xh2hqaUBDv0Tphun-djrPC8NeWFeKMVPH8A27wcVc7OMlY0tBFvafHOdKaWLBx36asXKbbHf-Qdv2kPBTSjLWi4B3s23bWw36IitC3mpAXKniqNQGMqG8nLDBug21XNM4Iz5oQfbNP8UHcvM8BneM-dccBE0KDoxrgStCFV6Wby5CZZJmvboBE8QObpDcvLoFnsx7ztdSsdHWyHN2Zu0aSDx454-r2TphtkEal9ouuCfPQiEjBXwtOOkfikk4czbhPv7Guql8r0d34TJY-uGhzGnBvwlDHTi8p00FV-TBKchutEjF-gQx_WK0]--></g></svg>