<?xml version="1.0" encoding="us-ascii" standalone="no"?><svg xmlns="http://www.w3.org/2000/svg" xmlns:xlink="http://www.w3.org/1999/xlink" contentStyleType="text/css" height="386px" preserveAspectRatio="none" style="width:595px;height:386px;background:#FFFFFF;" version="1.1" viewBox="0 0 595 386" width="595px" zoomAndPan="magnify"><defs/><g><rect fill="none" height="21.876" style="stroke:none;stroke-width:1.0;" width="562" x="15" y="12.2793"/><ellipse cx="152" cy="49.1553" fill="#222222" rx="10" ry="10" style="stroke:#222222;stroke-width:1.0;"/><rect fill="#F1F1F1" height="34.584" rx="12.5" ry="12.5" style="stroke:#181818;stroke-width:0.5;" width="262" x="21" y="79.1553"/><text fill="#000000" font-family="sans-serif" font-size="12" lengthAdjust="spacing" textLength="242" x="31" y="101.2197">Recibir notificaci&#243;n de cita programada</text><rect fill="#F1F1F1" height="34.584" rx="12.5" ry="12.5" style="stroke:#181818;stroke-width:0.5;" width="156" x="74" y="133.7393"/><text fill="#000000" font-family="sans-serif" font-size="12" lengthAdjust="spacing" textLength="136" x="84" y="155.8037">Ver detalles de la cita</text><rect fill="#F1F1F1" height="34.584" rx="12.5" ry="12.5" style="stroke:#181818;stroke-width:0.5;" width="248" x="28" y="297.4912"/><text fill="#000000" font-family="sans-serif" font-size="12" lengthAdjust="spacing" textLength="228" x="38" y="319.5557">Recibir confirmaci&#243;n de actualizaci&#243;n</text><ellipse cx="152" cy="363.0752" fill="none" rx="11" ry="11" style="stroke:#222222;stroke-width:1.0;"/><ellipse cx="152" cy="363.0752" fill="#222222" rx="6" ry="6" style="stroke:#222222;stroke-width:1.0;"/><line style="stroke:#000000;stroke-width:1.5;" x1="15" x2="15" y1="12.2793" y2="374.0752"/><rect fill="#F1F1F1" height="34.584" rx="12.5" ry="12.5" style="stroke:#181818;stroke-width:0.5;" width="278" x="293" y="188.3232"/><text fill="#000000" font-family="sans-serif" font-size="12" lengthAdjust="spacing" textLength="258" x="303" y="210.3877">Enviar notificaci&#243;n de cambio/cancelaci&#243;n</text><rect fill="#F1F1F1" height="34.584" rx="12.5" ry="12.5" style="stroke:#181818;stroke-width:0.5;" width="190" x="337" y="242.9072"/><text fill="#000000" font-family="sans-serif" font-size="12" lengthAdjust="spacing" textLength="170" x="347" y="264.9717">Actualizar estado de la cita</text><line style="stroke:#000000;stroke-width:1.5;" x1="287" x2="287" y1="12.2793" y2="374.0752"/><line style="stroke:#000000;stroke-width:1.5;" x1="575" x2="575" y1="12.2793" y2="374.0752"/><line style="stroke:#181818;stroke-width:1.0;" x1="152" x2="152" y1="59.1553" y2="79.1553"/><polygon fill="#181818" points="148,69.1553,152,79.1553,156,69.1553,152,73.1553" style="stroke:#181818;stroke-width:1.0;"/><line style="stroke:#181818;stroke-width:1.0;" x1="152" x2="152" y1="113.7393" y2="133.7393"/><polygon fill="#181818" points="148,123.7393,152,133.7393,156,123.7393,152,127.7393" style="stroke:#181818;stroke-width:1.0;"/><line style="stroke:#181818;stroke-width:1.0;" x1="152" x2="152" y1="332.0752" y2="352.0752"/><polygon fill="#181818" points="148,342.0752,152,352.0752,156,342.0752,152,346.0752" style="stroke:#181818;stroke-width:1.0;"/><line style="stroke:#181818;stroke-width:1.0;" x1="432" x2="432" y1="222.9072" y2="242.9072"/><polygon fill="#181818" points="428,232.9072,432,242.9072,436,232.9072,432,236.9072" style="stroke:#181818;stroke-width:1.0;"/><line style="stroke:#181818;stroke-width:1.0;" x1="152" x2="152" y1="168.3232" y2="173.3232"/><line style="stroke:#181818;stroke-width:1.0;" x1="152" x2="432" y1="173.3232" y2="173.3232"/><line style="stroke:#181818;stroke-width:1.0;" x1="432" x2="432" y1="173.3232" y2="188.3232"/><polygon fill="#181818" points="428,178.3232,432,188.3232,436,178.3232,432,182.3232" style="stroke:#181818;stroke-width:1.0;"/><line style="stroke:#181818;stroke-width:1.0;" x1="432" x2="432" y1="277.4912" y2="282.4912"/><line style="stroke:#181818;stroke-width:1.0;" x1="432" x2="152" y1="282.4912" y2="282.4912"/><line style="stroke:#181818;stroke-width:1.0;" x1="152" x2="152" y1="282.4912" y2="297.4912"/><polygon fill="#181818" points="148,287.4912,152,297.4912,156,287.4912,152,291.4912" style="stroke:#181818;stroke-width:1.0;"/><text fill="#000000" font-family="sans-serif" font-size="18" lengthAdjust="spacing" textLength="93" x="104.5" y="30.376">Proveedor</text><text fill="#000000" font-family="sans-serif" font-size="18" lengthAdjust="spacing" textLength="77" x="392.5" y="30.376">Servidor</text><!--SRC=[RSuz3i8m30NWFQV83TZJYO4TWSJkEYwobCILOpgWteeZS352-PTOxVS-lNchCX55qTbL0pKNTeJSi_eYnWCZ85ylnKVoo0P-L3agP8ZGkN0WRG-3bAZU4mcMKEVcFUd4YnesPMBunq7kMLO81IazperSevqWyRarg0sAykj-pNqFHIa3Q_x8y3AUQ3KPtGq0]--></g></svg>