<?xml version="1.0" encoding="us-ascii" standalone="no"?><svg xmlns="http://www.w3.org/2000/svg" xmlns:xlink="http://www.w3.org/1999/xlink" contentStyleType="text/css" height="424px" preserveAspectRatio="none" style="width:467px;height:424px;background:#FFFFFF;" version="1.1" viewBox="0 0 467 424" width="467px" zoomAndPan="magnify"><defs/><g><text fill="#000000" font-family="sans-serif" font-size="14" font-weight="bold" lengthAdjust="spacing" textLength="100" x="182" y="34.0752">Pago Seguro</text><rect fill="none" height="21.876" style="stroke:none;stroke-width:1.0;" width="434" x="15" y="50.2939"/><ellipse cx="138" cy="87.1699" fill="#222222" rx="10" ry="10" style="stroke:#222222;stroke-width:1.0;"/><rect fill="#F1F1F1" height="34.584" rx="12.5" ry="12.5" style="stroke:#181818;stroke-width:0.5;" width="234" x="21" y="117.1699"/><text fill="#000000" font-family="sans-serif" font-size="12" lengthAdjust="spacing" textLength="214" x="31" y="139.2344">Iniciar pago seguro en plataforma</text><rect fill="#F1F1F1" height="34.584" rx="12.5" ry="12.5" style="stroke:#181818;stroke-width:0.5;" width="199" x="38.5" y="335.5059"/><text fill="#000000" font-family="sans-serif" font-size="12" lengthAdjust="spacing" textLength="179" x="48.5" y="357.5703">Recibir confirmaci&#243;n de pago</text><ellipse cx="138" cy="401.0898" fill="none" rx="11" ry="11" style="stroke:#222222;stroke-width:1.0;"/><ellipse cx="138" cy="401.0898" fill="#222222" rx="6" ry="6" style="stroke:#222222;stroke-width:1.0;"/><line style="stroke:#000000;stroke-width:1.5;" x1="15" x2="15" y1="50.2939" y2="412.0898"/><rect fill="#F1F1F1" height="34.584" rx="12.5" ry="12.5" style="stroke:#181818;stroke-width:0.5;" width="178" x="265" y="171.7539"/><text fill="#000000" font-family="sans-serif" font-size="12" lengthAdjust="spacing" textLength="158" x="275" y="193.8184">Verificar m&#233;todo de pago</text><rect fill="#F1F1F1" height="34.584" rx="12.5" ry="12.5" style="stroke:#181818;stroke-width:0.5;" width="111" x="298.5" y="226.3379"/><text fill="#000000" font-family="sans-serif" font-size="12" lengthAdjust="spacing" textLength="91" x="308.5" y="248.4023">Procesar pago</text><rect fill="#F1F1F1" height="34.584" rx="12.5" ry="12.5" style="stroke:#181818;stroke-width:0.5;" width="177" x="265.5" y="280.9219"/><text fill="#000000" font-family="sans-serif" font-size="12" lengthAdjust="spacing" textLength="157" x="275.5" y="302.9863">Confirmar pago al cliente</text><line style="stroke:#000000;stroke-width:1.5;" x1="259" x2="259" y1="50.2939" y2="412.0898"/><line style="stroke:#000000;stroke-width:1.5;" x1="447" x2="447" y1="50.2939" y2="412.0898"/><line style="stroke:#181818;stroke-width:1.0;" x1="138" x2="138" y1="97.1699" y2="117.1699"/><polygon fill="#181818" points="134,107.1699,138,117.1699,142,107.1699,138,111.1699" style="stroke:#181818;stroke-width:1.0;"/><line style="stroke:#181818;stroke-width:1.0;" x1="138" x2="138" y1="370.0898" y2="390.0898"/><polygon fill="#181818" points="134,380.0898,138,390.0898,142,380.0898,138,384.0898" style="stroke:#181818;stroke-width:1.0;"/><line style="stroke:#181818;stroke-width:1.0;" x1="354" x2="354" y1="206.3379" y2="226.3379"/><polygon fill="#181818" points="350,216.3379,354,226.3379,358,216.3379,354,220.3379" style="stroke:#181818;stroke-width:1.0;"/><line style="stroke:#181818;stroke-width:1.0;" x1="354" x2="354" y1="260.9219" y2="280.9219"/><polygon fill="#181818" points="350,270.9219,354,280.9219,358,270.9219,354,274.9219" style="stroke:#181818;stroke-width:1.0;"/><line style="stroke:#181818;stroke-width:1.0;" x1="138" x2="138" y1="151.7539" y2="156.7539"/><line style="stroke:#181818;stroke-width:1.0;" x1="138" x2="354" y1="156.7539" y2="156.7539"/><line style="stroke:#181818;stroke-width:1.0;" x1="354" x2="354" y1="156.7539" y2="171.7539"/><polygon fill="#181818" points="350,161.7539,354,171.7539,358,161.7539,354,165.7539" style="stroke:#181818;stroke-width:1.0;"/><line style="stroke:#181818;stroke-width:1.0;" x1="354" x2="354" y1="315.5059" y2="320.5059"/><line style="stroke:#181818;stroke-width:1.0;" x1="354" x2="138" y1="320.5059" y2="320.5059"/><line style="stroke:#181818;stroke-width:1.0;" x1="138" x2="138" y1="320.5059" y2="335.5059"/><polygon fill="#181818" points="134,325.5059,138,335.5059,142,325.5059,138,329.5059" style="stroke:#181818;stroke-width:1.0;"/><text fill="#000000" font-family="sans-serif" font-size="18" lengthAdjust="spacing" textLength="63" x="105.5" y="68.3906">Cliente</text><text fill="#000000" font-family="sans-serif" font-size="18" lengthAdjust="spacing" textLength="77" x="314.5" y="68.3906">Servidor</text><!--SRC=[JOun3i9030HxlyBY6PSo5Lr49Fh3SI9BbtFaCrJt8MgUa8yHGYGeLvgTNHTFZASkJeezJtVJ4q1jat1shb0ycaCuPo69Xii7Apk6d759qUEeDiS6Qi_sa46jGhYooIYq5URrwJee3hnt6mYTAN4vN5jkDO-o6GvvJ4ZVyURlHhWmoKqCwQ19rbV-MOlh0l06]--></g></svg>